<?xml version="1.0" standalone="no"?>
<!DOCTYPE svg PUBLIC "-//W3C//DTD SVG 20010904//EN"
 "http://www.w3.org/TR/2001/REC-SVG-20010904/DTD/svg10.dtd">
<svg version="1.0" xmlns="http://www.w3.org/2000/svg"
 width="200.000000pt" height="200.000000pt" viewBox="0 0 200.000000 200.000000"
 preserveAspectRatio="xMidYMid meet">

<g transform="translate(0.000000,200.000000) scale(0.100000,-0.100000)"
fill="#ff6a80" stroke="none">
<path d="M570 1578 c-47 -32 -67 -63 -95 -146 -31 -92 -52 -212 -66 -382 -22
-265 -2 -349 113 -464 73 -72 162 -125 268 -158 108 -33 312 -33 420 0 198 62
336 187 377 344 15 60 16 83 5 235 -35 500 -136 672 -328 557 -32 -19 -71 -47
-86 -61 -25 -24 -29 -24 -78 -14 -65 14 -135 14 -199 0 -50 -10 -50 -10 -102
31 -105 83 -168 99 -229 58z m122 -127 c25 -16 62 -49 83 -74 l37 -45 47 21
c68 31 216 31 286 -1 35 -16 51 -19 54 -11 15 45 148 148 172 134 37 -23 81
-214 100 -429 15 -179 9 -252 -24 -309 -120 -204 -468 -280 -715 -156 -76 37
-145 98 -180 157 -26 46 -27 51 -26 187 3 217 43 459 90 533 18 28 21 28 76
-7z"/>
<path d="M760 1060 c-11 -11 -20 -29 -20 -40 0 -11 9 -29 20 -40 11 -11 29
-20 40 -20 11 0 29 9 40 20 11 11 20 29 20 40 0 11 -9 29 -20 40 -11 11 -29
20 -40 20 -11 0 -29 -9 -40 -20z"/>
<path d="M1160 1060 c-11 -11 -20 -29 -20 -40 0 -11 9 -29 20 -40 11 -11 29
-20 40 -20 11 0 29 9 40 20 11 11 20 29 20 40 0 11 -9 29 -20 40 -11 11 -29
20 -40 20 -11 0 -29 -9 -40 -20z"/>
</g>
</svg>
